<?xml version="1.0" standalone="no"?>
<!DOCTYPE svg PUBLIC "-//W3C//DTD SVG 20010904//EN"
 "http://www.w3.org/TR/2001/REC-SVG-20010904/DTD/svg10.dtd">
<svg version="1.0" xmlns="http://www.w3.org/2000/svg"
 width="900.000000pt" height="127.000000pt" viewBox="0 0 900.000000 127.000000"
 preserveAspectRatio="xMidYMid meet">

<g transform="translate(0.000000,127.000000) scale(0.100000,-0.100000)"
fill="#000000" stroke="none">
<path d="M1450 645 l0 -625 175 0 175 0 0 230 c0 127 2 230 5 230 3 0 107
-103 231 -230 l227 -230 226 0 226 0 -248 248 -249 249 227 186 226 187 -211
0 -211 0 -219 -180 c-120 -99 -221 -180 -224 -180 -3 0 -6 167 -6 370 l0 370
-175 0 -175 0 0 -625z"/>
<path d="M354 718 c-177 -106 -329 -199 -338 -207 -31 -26 -15 -160 30 -257
27 -57 110 -141 170 -172 161 -82 478 -103 699 -47 151 39 272 131 316 242 20
49 24 76 24 178 0 111 -2 125 -28 180 -39 83 -71 122 -137 164 -93 60 -202 93
-350 106 l-65 5 -321 -192z m401 -6 c47 -24 86 -63 111 -112 22 -44 30 -170
15 -227 -16 -60 -68 -124 -123 -151 -55 -28 -155 -33 -228 -13 -60 17 -122 81
-141 147 -17 60 -17 175 0 227 23 67 83 123 161 148 44 15 162 4 205 -19z"/>
<path d="M5915 895 c-153 -29 -245 -75 -323 -160 -89 -97 -122 -245 -88 -390
21 -86 50 -137 114 -197 85 -80 191 -120 369 -139 227 -24 459 15 592 101 122
79 177 200 169 370 -4 82 -10 108 -36 163 -82 177 -288 268 -595 266 -73 -1
-163 -7 -202 -14z m330 -183 c46 -23 85 -62 111 -112 15 -27 19 -57 19 -136 0
-94 -2 -104 -30 -149 -40 -65 -96 -103 -168 -115 -68 -11 -160 3 -205 31 -76
45 -120 157 -108 271 12 122 68 194 176 229 44 15 162 4 205 -19z"/>
<path d="M7532 885 c-94 -21 -164 -67 -226 -150 -14 -18 -15 -13 -16 68 l0 87
-176 0 -177 0 7 -77 c3 -42 6 -237 6 -435 l0 -358 174 0 174 0 4 198 c4 180 6
202 27 249 48 109 144 158 292 151 l79 -3 0 142 0 143 -52 -1 c-29 0 -82 -7
-116 -14z"/>
<path d="M3380 883 c0 -5 83 -199 183 -433 l183 -425 210 -3 209 -2 120 304
c66 168 123 302 126 298 4 -4 62 -141 129 -304 l123 -298 201 0 201 1 187 417
c103 229 190 425 194 435 6 16 -4 17 -156 15 l-163 -3 -114 -290 c-63 -159
-118 -294 -122 -298 -5 -5 -62 126 -128 290 l-119 298 -210 2 -209 3 -120
-296 c-66 -163 -123 -298 -126 -300 -7 -4 -12 9 -140 364 l-84 232 -187 0
c-104 0 -188 -3 -188 -7z"/>
<path d="M7835 818 c39 -40 126 -130 195 -200 l125 -128 -75 -77 c-42 -43
-142 -146 -223 -229 -81 -83 -147 -154 -147 -157 0 -4 84 -7 188 -7 l187 0
120 135 c66 74 122 135 125 135 3 0 54 -61 114 -135 l109 -135 219 0 c120 0
218 2 218 5 0 3 -94 106 -210 230 -115 125 -210 229 -210 233 0 4 27 34 61 67
33 33 119 122 191 198 l130 137 -188 0 -189 0 -93 -105 c-51 -58 -96 -105
-100 -104 -4 0 -45 47 -92 104 l-85 105 -220 0 -219 0 69 -72z"/>
<path d="M3001 634 c-38 -83 -44 -88 -137 -99 -32 -4 -63 -10 -67 -12 -5 -3
19 -31 54 -62 l62 -57 -13 -82 c-7 -46 -11 -85 -8 -87 2 -2 36 12 75 33 l72
37 77 -38 77 -38 -7 43 c-22 138 -26 123 43 192 l62 63 -88 12 -89 12 -40 80
-39 79 -34 -76z"/>
</g>
</svg>
