<?xml version="1.0" encoding="UTF-8" standalone="no"?>
<svg
   version="1.0"
   width="271.5051pt"
   height="126.6362pt"
   viewBox="0 0 271.5051 126.6362"
   preserveAspectRatio="xMidYMid"
   id="svg7"
   sodipodi:docname="logo_2016.svg"
   xmlns:inkscape="http://www.inkscape.org/namespaces/inkscape"
   xmlns:sodipodi="http://sodipodi.sourceforge.net/DTD/sodipodi-0.dtd"
   xmlns="http://www.w3.org/2000/svg"
   xmlns:svg="http://www.w3.org/2000/svg">
  <defs
     id="defs7" />
  <sodipodi:namedview
     id="namedview7"
     pagecolor="#ffffff"
     bordercolor="#000000"
     borderopacity="0.25"
     inkscape:showpageshadow="2"
     inkscape:pageopacity="0.0"
     inkscape:pagecheckerboard="0"
     inkscape:deskcolor="#d1d1d1"
     inkscape:document-units="pt">
    <inkscape:page
       x="0"
       y="0"
       width="271.5051"
       height="126.6362"
       id="page2"
       margin="0"
       bleed="0" />
  </sodipodi:namedview>
  <g
     transform="matrix(0.1,0,0,-0.1,0.00509652,127)"
     fill="#000000"
     stroke="none"
     id="g7">
    <path
       d="M 1450,645 V 20 h 175 175 v 230 c 0,127 2,230 5,230 3,0 107,-103 231,-230 L 2263,20 h 226 226 l -248,248 -249,249 227,186 226,187 H 2460 2249 L 2030,710 c -120,-99 -221,-180 -224,-180 -3,0 -6,167 -6,370 v 370 h -175 -175 z"
       id="path1" />
    <path
       d="M 354,718 C 177,612 25,519 16,511 -15,485 1,351 46,254 73,197 156,113 216,82 377,0 694,-21 915,35 c 151,39 272,131 316,242 20,49 24,76 24,178 0,111 -2,125 -28,180 -39,83 -71,122 -137,164 -93,60 -202,93 -350,106 l -65,5 z m 401,-6 C 802,688 841,649 866,600 888,556 896,430 881,373 865,313 813,249 758,222 703,194 603,189 530,209 c -60,17 -122,81 -141,147 -17,60 -17,175 0,227 23,67 83,123 161,148 44,15 162,4 205,-19 z"
       id="path2" />
  </g>
</svg>
