<?xml version="1.0" standalone="no"?>
<!DOCTYPE svg PUBLIC "-//W3C//DTD SVG 20010904//EN"
 "http://www.w3.org/TR/2001/REC-SVG-20010904/DTD/svg10.dtd">
<svg version="1.0" xmlns="http://www.w3.org/2000/svg"
 width="600.000000pt" height="120.000000pt" viewBox="0 0 600.000000 120.000000"
 preserveAspectRatio="xMidYMid meet">

<g transform="translate(0.000000,120.000000) scale(0.100000,-0.100000)"
fill="#000000" stroke="none">

<path d="M1124 940 c-22 -5 -58 -16 -80 -26 l-39 -18 70 -7 c39 -5 122 -6 185
-2 l115 6 -50 23 c-58 26 -142 36 -201 24z"/>
<path d="M105 906 c-74 -33 -116 -119 -95 -196 15 -57 52 -95 141 -146 87 -50
99 -65 99 -119 0 -55 -35 -85 -100 -85 -28 0 -67 7 -87 15 -20 8 -37 14 -39
12 -2 -1 -4 -23 -6 -47 -3 -44 -2 -45 37 -58 55 -19 171 -11 221 15 49 25 81
71 90 129 15 101 -21 158 -142 224 -81 45 -104 70 -104 112 0 61 72 91 159 65
l51 -15 0 48 c0 45 -1 48 -31 54 -53 10 -162 6 -194 -8z"/>
<path d="M420 875 l0 -45 75 0 75 0 0 -275 0 -275 55 0 55 0 0 275 0 275 70 0
70 0 0 45 0 45 -200 0 -200 0 0 -45z"/>
<path d="M1638 914 c-5 -4 -8 -148 -8 -321 l0 -313 55 0 54 0 3 137 3 138 33
-1 c68 -4 84 -29 137 -217 l16 -57 61 0 c53 0 59 2 53 18 -4 9 -24 67 -45 128
-45 133 -54 151 -80 159 -25 8 -26 25 -1 25 27 0 76 43 91 80 17 40 8 125 -17
158 -36 51 -85 66 -223 70 -69 2 -128 1 -132 -4z m226 -95 c34 -16 51 -61 40
-106 -12 -48 -47 -72 -109 -75 l-50 -3 -3 98 -3 97 50 0 c28 0 61 -5 75 -11z"/>
<path d="M2130 875 l0 -45 120 0 c66 0 120 -3 120 -8 0 -4 -56 -105 -125 -225
-114 -198 -125 -223 -125 -268 l0 -49 195 0 195 0 0 45 0 45 -130 0 c-71 0
-130 1 -130 3 0 1 56 101 125 221 117 205 125 223 125 273 l0 53 -185 0 -185
0 0 -45z"/>
<path d="M2850 600 c0 -313 0 -320 20 -320 19 0 20 8 22 298 2 163 6 290 10
282 3 -8 47 -142 97 -298 77 -237 95 -282 110 -282 16 0 33 43 104 263 47 144
89 274 92 290 19 73 25 4 25 -263 0 -283 0 -290 20 -290 20 0 20 7 20 320 l0
320 -38 0 -38 0 -90 -280 c-49 -154 -91 -280 -95 -280 -3 0 -45 126 -95 280
l-89 280 -37 0 -38 0 0 -320z"/>
<path d="M3550 600 l0 -320 135 0 135 0 0 26 0 25 -107 -2 -108 -2 -5 128 c-3
70 -3 129 -1 131 2 2 49 4 103 4 91 0 98 1 98 20 0 18 -8 20 -101 22 l-101 3
0 115 0 115 106 3 c105 3 106 3 106 27 l0 25 -130 0 -130 0 0 -320z"/>
<path d="M3950 601 l0 -321 73 0 c174 0 270 72 307 229 18 78 8 197 -23 264
-42 93 -114 132 -267 143 l-90 7 0 -322z m233 236 c55 -32 73 -60 93 -139 29
-113 6 -235 -58 -304 -45 -49 -80 -63 -159 -66 l-54 -3 -3 274 -2 274 69 -5
c50 -4 82 -12 114 -31z"/>
<path d="M4480 600 l0 -320 25 0 25 0 0 320 0 320 -25 0 -25 0 0 -320z"/>
<path d="M4861 906 c-55 -20 -112 -75 -139 -135 -34 -73 -42 -211 -18 -293 20
-69 62 -131 110 -164 50 -35 146 -51 204 -35 37 10 42 15 42 41 l0 28 -31 -15
c-21 -10 -48 -14 -85 -11 -77 7 -130 45 -169 123 -27 54 -30 69 -30 155 0 82
4 103 27 152 45 97 144 143 242 114 l46 -14 0 28 c0 20 -6 29 -22 34 -38 10
-141 5 -177 -8z"/>
<path d="M5312 833 c-45 -131 -182 -542 -182 -548 0 -3 10 -5 23 -5 19 0 26
12 52 88 l30 87 131 3 130 3 29 -91 c25 -79 32 -90 52 -90 13 0 23 6 22 13 0
6 -46 149 -103 317 -96 288 -103 305 -128 308 -23 3 -27 -3 -56 -85z m117
-154 c28 -92 51 -170 51 -173 0 -3 -52 -6 -116 -6 -115 0 -115 0 -109 23 9 26
70 222 92 290 8 27 19 45 23 40 4 -4 30 -83 59 -174z"/>
<path d="M5740 600 l0 -320 131 0 c130 0 130 0 127 23 -3 21 -7 22 -103 23
l-100 2 -3 296 -2 296 -25 0 -25 0 0 -320z"/>
<path d="M1013 827 c-127 -16 -135 -31 -20 -37 209 -10 479 -2 474 15 -8 23
-325 38 -454 22z"/>
<path d="M988 723 c-93 -3 -127 -7 -131 -17 -4 -11 26 -15 146 -21 183 -8 184
-8 370 1 115 5 147 10 147 20 0 11 -19 14 -83 14 -46 0 -137 2 -203 4 -65 1
-176 1 -246 -1z"/>
<path d="M1145 620 c-11 -5 -84 -9 -162 -9 -122 -1 -143 -3 -143 -17 0 -18
130 -21 554 -12 96 2 141 7 143 15 3 8 -38 13 -149 16 -84 3 -169 8 -188 11
-19 3 -44 1 -55 -4z"/>
<path d="M1125 520 c-22 -5 -93 -9 -157 -9 -95 -1 -116 -4 -112 -15 4 -10 42
-15 152 -20 181 -9 183 -9 365 0 107 5 147 10 147 19 0 9 -39 14 -147 18 -82
4 -161 8 -178 11 -16 2 -48 1 -70 -4z"/>
<path d="M1045 409 c-33 -5 -79 -8 -102 -7 -41 3 -54 -4 -33 -17 42 -26 512
-25 552 2 28 17 -328 37 -417 22z"/>
<path d="M1010 304 c0 -3 21 -14 47 -26 61 -27 177 -29 250 -4 29 10 55 22 58
27 4 5 -67 9 -174 9 -100 0 -181 -3 -181 -6z"/>
</g>
</svg>
