<?xml version="1.0" encoding="UTF-8" standalone="no"?>
<svg
   version="1.0"
   width="69.71524pt"
   height="68.860306pt"
   viewBox="0 0 69.71524 68.860306"
   preserveAspectRatio="xMidYMid"
   id="svg7"
   xmlns="http://www.w3.org/2000/svg"
   xmlns:svg="http://www.w3.org/2000/svg">
  <defs
     id="defs7" />
  <g
     transform="matrix(0.1,0,0,-0.1,-84,94.503815)"
     fill="#000000"
     stroke="none"
     id="g7">
    <path
       d="m 1124,940 c -22,-5 -58,-16 -80,-26 l -39,-18 70,-7 c 39,-5 122,-6 185,-2 l 115,6 -50,23 c -58,26 -142,36 -201,24 z"
       id="path1" />
    <path
       d="m 1013,827 c -127,-16 -135,-31 -20,-37 209,-10 479,-2 474,15 -8,23 -325,38 -454,22 z"
       id="path2" />
    <path
       d="m 988,723 c -93,-3 -127,-7 -131,-17 -4,-11 26,-15 146,-21 183,-8 184,-8 370,1 115,5 147,10 147,20 0,11 -19,14 -83,14 -46,0 -137,2 -203,4 -65,1 -176,1 -246,-1 z"
       id="path3" />
    <path
       d="m 1145,620 c -11,-5 -84,-9 -162,-9 -122,-1 -143,-3 -143,-17 0,-18 130,-21 554,-12 96,2 141,7 143,15 3,8 -38,13 -149,16 -84,3 -169,8 -188,11 -19,3 -44,1 -55,-4 z"
       id="path4" />
    <path
       d="m 1125,520 c -22,-5 -93,-9 -157,-9 -95,-1 -116,-4 -112,-15 4,-10 42,-15 152,-20 181,-9 183,-9 365,0 107,5 147,10 147,19 0,9 -39,14 -147,18 -82,4 -161,8 -178,11 -16,2 -48,1 -70,-4 z"
       id="path5" />
    <path
       d="m 1045,409 c -33,-5 -79,-8 -102,-7 -41,3 -54,-4 -33,-17 42,-26 512,-25 552,2 28,17 -328,37 -417,22 z"
       id="path6" />
    <path
       d="m 1010,304 c 0,-3 21,-14 47,-26 61,-27 177,-29 250,-4 29,10 55,22 58,27 4,5 -67,9 -174,9 -100,0 -181,-3 -181,-6 z"
       id="path7" />
  </g>
</svg>
