<?xml version="1.0" encoding="UTF-8" standalone="no"?>
<svg
   version="1.0"
   width="940.81879pt"
   height="395.4097pt"
   viewBox="0 0 940.81879 395.4097"
   preserveAspectRatio="xMidYMid"
   id="svg1"
   xmlns="http://www.w3.org/2000/svg"
   xmlns:svg="http://www.w3.org/2000/svg">
  <defs
     id="defs1" />
  <g
     transform="matrix(0.1,0,0,-0.1,-1.1812441,502.61157)"
     fill="#000000"
     stroke="none"
     id="g1">
    <path
       d="M 1260,5020 C 710,4968 287,4751 130,4440 72,4325 59,4269 53,4105 43,3841 92,3693 252,3502 c 163,-194 385,-337 1048,-677 524,-267 665,-358 828,-530 141,-149 192,-272 192,-460 0,-165 -40,-278 -137,-385 -96,-106 -228,-178 -404,-220 -307,-73 -688,-37 -937,89 -128,64 -268,187 -366,321 -137,186 -262,559 -277,828 l -3,42 H 118 40 V 2218 C 39,1861 23,1163 14,1132 c -6,-22 -5,-22 75,-22 63,0 81,3 81,14 0,44 45,153 76,184 33,33 37,34 92,30 35,-3 91,-19 147,-42 237,-100 515,-183 690,-206 138,-18 562,-24 717,-11 493,44 874,192 1108,430 173,176 243,362 235,626 -7,257 -76,415 -264,604 -186,186 -420,332 -1056,659 -198,101 -409,211 -470,244 -239,130 -419,272 -497,392 -120,185 -111,447 21,611 81,100 244,197 396,235 250,63 579,35 797,-68 164,-77 336,-232 446,-400 98,-150 181,-380 198,-547 l 7,-65 h 78 79 v 333 c 1,313 12,643 23,654 23,22 155,-110 206,-207 19,-35 376,-825 792,-1755 l 758,-1690 178,-3 179,-2 524,1255 c 288,690 526,1255 529,1255 5,0 649,-1501 990,-2307 l 86,-203 179,3 180,2 641,1615 c 353,888 654,1640 669,1670 97,187 240,321 438,410 l 78,35 v 45 45 l -643,1 c -353,0 -659,4 -679,8 l -38,7 v -54 -54 l 119,-11 c 325,-32 464,-146 478,-392 6,-98 -18,-229 -67,-375 -50,-150 -794,-1985 -802,-1977 -16,16 -981,2354 -1004,2431 -29,102 -30,142 -3,197 29,61 92,90 235,109 60,8 133,15 162,15 h 52 v 48 47 h -887 c -489,0 -900,3 -915,8 l -28,7 v -53 -54 l 55,-12 c 125,-28 210,-92 275,-206 30,-54 343,-783 343,-801 0,-12 -732,-1745 -742,-1756 -8,-9 -987,2258 -1034,2392 -30,86 -45,188 -33,233 16,67 91,118 200,138 l 67,13 -3,49 -3,50 -145,-4 c -181,-5 -1161,-5 -1410,0 l -185,3 -1,-43 c -1,-24 -2,-61 -3,-81 -1,-23 -10,-47 -27,-67 -34,-40 -75,-41 -163,-2 -36,16 -106,48 -156,70 -210,93 -359,141 -520,166 -120,19 -518,28 -655,15 z"
       id="path1" />
  </g>
</svg>
