<?xml version="1.0" standalone="no"?>
<!DOCTYPE svg PUBLIC "-//W3C//DTD SVG 20010904//EN"
 "http://www.w3.org/TR/2001/REC-SVG-20010904/DTD/svg10.dtd">
<svg version="1.0" xmlns="http://www.w3.org/2000/svg"
 width="2803.000000pt" height="609.000000pt" viewBox="0 0 2803.000000 609.000000"
 preserveAspectRatio="xMidYMid meet">

<g transform="translate(0.000000,609.000000) scale(0.100000,-0.100000)"
fill="#000000" stroke="none">
<path d="M10600 3048 l0 -3043 32 2 c18 1 43 2 56 2 l22 1 0 3040 0 3040 -55
0 -55 0 0 -3042z"/>
<path d="M17595 5133 c-47 -10 -140 -16 -287 -17 l-218 -1 0 -26 c0 -25 4 -27
62 -33 75 -8 141 -38 169 -78 45 -62 49 -102 49 -446 l0 -324 -40 35 c-52 47
-121 82 -216 108 -69 19 -96 21 -224 16 -166 -6 -247 -24 -375 -87 -250 -123
-392 -355 -411 -669 -23 -387 111 -684 366 -808 110 -53 189 -72 330 -79 254
-12 427 59 536 221 l34 50 0 -133 c0 -122 1 -133 18 -128 76 23 150 28 502 36
217 4 429 6 470 4 41 -2 130 -6 197 -9 l122 -5 17 36 c9 19 27 42 39 50 21 14
30 11 131 -41 89 -45 126 -58 204 -71 112 -19 275 -15 390 10 109 24 232 87
297 152 79 79 98 126 98 249 0 93 -2 105 -33 166 -63 129 -177 215 -550 415
-204 110 -265 149 -319 206 -85 88 -83 229 3 310 69 65 205 92 339 69 187 -33
305 -152 376 -379 l23 -72 37 0 36 0 7 233 c4 127 10 242 13 255 5 22 3 23
-37 20 -41 -3 -43 -5 -56 -46 -15 -52 -40 -82 -68 -82 -11 0 -65 23 -121 50
-133 67 -191 80 -345 80 -257 0 -433 -78 -507 -225 -38 -73 -44 -207 -13 -288
44 -118 155 -208 455 -372 317 -173 401 -240 432 -344 39 -136 -28 -273 -162
-332 -61 -27 -204 -37 -287 -20 -126 26 -228 103 -283 212 -26 50 -67 189 -86
287 l-12 62 -38 0 -39 0 0 -138 c0 -77 -3 -194 -7 -260 -6 -117 -7 -122 -28
-122 -35 0 -107 28 -132 52 -52 48 -53 68 -53 800 0 373 -2 678 -5 678 -3 0
-47 -8 -97 -17 -67 -12 -149 -17 -295 -17 l-203 0 0 -28 c0 -26 3 -28 38 -28
105 0 188 -55 219 -144 16 -46 18 -100 18 -601 l0 -550 -23 -46 c-54 -109
-205 -126 -294 -32 -61 64 -58 1 -58 1178 0 1018 -1 1075 -17 1074 -10 -1 -49
-8 -88 -16z m-516 -838 c127 -27 224 -93 271 -185 20 -39 20 -52 18 -513 l-3
-473 -38 -76 c-111 -225 -381 -304 -610 -180 -65 35 -135 113 -175 195 -122
252 -118 749 9 988 37 68 133 167 198 203 101 54 205 67 330 41z"/>
<path d="M26540 5133 c-45 -10 -133 -15 -287 -16 l-223 -2 0 -26 c0 -25 4 -27
62 -33 73 -7 141 -37 167 -74 51 -73 51 -66 51 -1057 0 -995 0 -993 -53 -1043
-29 -28 -87 -48 -165 -57 -61 -7 -62 -8 -62 -37 0 -29 1 -30 42 -23 55 10 711
10 766 1 l42 -8 0 35 c0 34 0 34 -46 35 -96 2 -165 44 -184 111 -6 20 -10 170
-10 339 l0 303 38 -6 c89 -14 125 -29 173 -72 70 -64 511 -602 507 -621 -4
-22 -50 -53 -83 -55 -26 -3 -30 -7 -28 -31 1 -16 3 -29 5 -30 2 -1 84 1 183 5
167 7 414 4 478 -6 24 -4 27 -2 27 26 0 16 -6 31 -12 33 -69 20 -117 46 -163
88 -51 47 -728 811 -732 826 -3 11 464 414 527 454 64 41 163 78 210 78 26 0
30 4 30 28 l0 27 -365 0 -365 1 0 -28 c0 -27 1 -28 58 -28 71 0 159 -25 190
-53 25 -24 29 -65 8 -105 -30 -57 -393 -375 -476 -417 -47 -24 -155 -55 -192
-55 -17 0 -18 43 -18 755 0 713 -1 755 -17 754 -10 -1 -47 -8 -83 -16z"/>
<path d="M18080 5058 c-121 -73 -134 -201 -31 -290 80 -68 208 -78 298 -22 67
42 93 84 93 151 0 121 -87 193 -233 193 -64 0 -79 -4 -127 -32z"/>
<path d="M1260 5020 c-550 -52 -973 -269 -1130 -580 -58 -115 -71 -171 -77
-335 -10 -264 39 -412 199 -603 163 -194 385 -337 1048 -677 524 -267 665
-358 828 -530 141 -149 192 -272 192 -460 0 -165 -40 -278 -137 -385 -96 -106
-228 -178 -404 -220 -307 -73 -688 -37 -937 89 -128 64 -268 187 -366 321
-137 186 -262 559 -277 828 l-3 42 -78 0 -78 0 0 -292 c-1 -357 -17 -1055 -26
-1086 -6 -22 -5 -22 75 -22 63 0 81 3 81 14 0 44 45 153 76 184 33 33 37 34
92 30 35 -3 91 -19 147 -42 237 -100 515 -183 690 -206 138 -18 562 -24 717
-11 493 44 874 192 1108 430 173 176 243 362 235 626 -7 257 -76 415 -264 604
-186 186 -420 332 -1056 659 -198 101 -409 211 -470 244 -239 130 -419 272
-497 392 -120 185 -111 447 21 611 81 100 244 197 396 235 250 63 579 35 797
-68 164 -77 336 -232 446 -400 98 -150 181 -380 198 -547 l7 -65 78 0 79 0 0
333 c1 313 12 643 23 654 23 22 155 -110 206 -207 19 -35 376 -825 792 -1755
l758 -1690 178 -3 179 -2 524 1255 c288 690 526 1255 529 1255 5 0 649 -1501
990 -2307 l86 -203 179 3 180 2 641 1615 c353 888 654 1640 669 1670 97 187
240 321 438 410 l78 35 0 45 0 45 -643 1 c-353 0 -659 4 -679 8 l-38 7 0 -54
0 -54 119 -11 c325 -32 464 -146 478 -392 6 -98 -18 -229 -67 -375 -50 -150
-794 -1985 -802 -1977 -16 16 -981 2354 -1004 2431 -29 102 -30 142 -3 197 29
61 92 90 235 109 60 8 133 15 162 15 l52 0 0 48 0 47 -887 0 c-489 0 -900 3
-915 8 l-28 7 0 -53 0 -54 55 -12 c125 -28 210 -92 275 -206 30 -54 343 -783
343 -801 0 -12 -732 -1745 -742 -1756 -8 -9 -987 2258 -1034 2392 -30 86 -45
188 -33 233 16 67 91 118 200 138 l67 13 -3 49 -3 50 -145 -4 c-181 -5 -1161
-5 -1410 0 l-185 3 -1 -43 c-1 -24 -2 -61 -3 -81 -1 -23 -10 -47 -27 -67 -34
-40 -75 -41 -163 -2 -36 16 -106 48 -156 70 -210 93 -359 141 -520 166 -120
19 -518 28 -655 15z"/>
<path d="M12380 4943 c-143 -24 -288 -90 -372 -170 -110 -105 -142 -194 -136
-367 6 -135 27 -199 99 -289 93 -116 232 -209 604 -402 287 -150 418 -252 477
-373 30 -60 33 -75 33 -157 0 -49 -6 -108 -12 -131 -33 -107 -136 -203 -264
-245 -65 -21 -92 -24 -219 -24 -132 1 -152 3 -225 29 -90 31 -184 94 -245 163
-78 90 -147 270 -175 456 -6 36 -7 37 -45 37 l-40 0 0 -282 c0 -156 -3 -320
-7 -365 l-6 -83 40 0 c39 0 39 1 52 50 17 68 47 91 102 79 22 -5 66 -22 97
-38 198 -99 439 -133 682 -96 190 28 325 86 433 186 108 98 157 217 157 377 0
159 -46 258 -176 381 -101 94 -215 165 -553 344 -318 167 -357 191 -437 271
-75 75 -104 143 -104 245 0 118 44 204 138 271 89 64 165 85 312 85 77 0 144
-5 175 -14 124 -35 239 -119 311 -229 48 -71 101 -224 110 -314 l7 -68 201 -2
201 -3 5 -610 c6 -662 5 -648 64 -749 84 -144 312 -217 542 -175 123 23 223
98 284 212 14 26 28 47 31 47 3 0 11 -17 17 -39 15 -48 81 -124 138 -157 135
-80 379 -96 551 -38 149 51 249 126 325 244 l48 75 0 -174 0 -173 23 5 c100
25 183 32 375 32 l212 0 0 26 c0 25 -4 27 -62 33 -75 8 -141 38 -169 78 -48
67 -49 77 -49 790 0 528 -3 668 -12 668 -7 0 -49 -7 -93 -16 -55 -11 -145 -16
-292 -17 l-213 -2 0 -26 c0 -25 3 -26 66 -32 109 -10 178 -63 204 -156 6 -21
10 -198 10 -432 0 -362 -2 -402 -20 -473 -27 -106 -63 -169 -141 -249 -79 -79
-159 -121 -265 -137 -82 -13 -176 -1 -233 28 -46 24 -88 84 -102 147 -8 34
-13 263 -16 708 -3 498 -7 657 -16 657 -7 0 -30 -5 -52 -10 -102 -23 -261 -30
-542 -24 l-293 7 0 252 0 252 -57 -13 c-32 -8 -104 -17 -160 -20 l-103 -7 -2
-231 -3 -231 -164 -3 -164 -3 6 278 c3 153 9 288 13 301 6 20 3 22 -39 22 -44
0 -45 0 -51 -38 -8 -52 -40 -92 -74 -92 -14 0 -84 27 -154 60 -162 77 -222 90
-413 88 -82 0 -161 -3 -175 -5z m2001 -699 c56 -26 84 -64 104 -140 12 -48 15
-137 15 -496 l0 -438 -25 -66 c-69 -183 -175 -274 -320 -274 -109 1 -173 38
-212 125 -17 37 -18 89 -21 678 l-3 639 208 -4 c186 -3 213 -5 254 -24z"/>
<path d="M20070 4888 c0 -21 5 -28 20 -28 10 0 43 -9 73 -20 54 -20 101 -61
131 -115 10 -16 194 -466 410 -1000 l392 -970 31 -3 c22 -2 32 2 37 15 4 10
133 358 287 773 154 415 284 759 288 763 4 4 150 -342 323 -770 l314 -778 31
-3 c22 -2 32 2 38 15 4 10 164 439 356 953 259 693 360 949 387 990 41 60 108
111 183 137 41 15 49 22 49 43 l0 25 -345 1 -345 1 0 -27 c0 -26 2 -27 73 -33
139 -12 217 -60 233 -144 15 -79 -14 -169 -257 -807 -133 -347 -244 -637 -248
-644 -9 -15 -547 1365 -564 1445 -21 102 20 141 163 150 78 6 80 6 80 32 l0
26 -410 0 -410 0 0 -27 c0 -20 5 -28 17 -28 34 0 103 -43 135 -82 17 -23 60
-111 95 -196 l63 -156 -216 -575 c-119 -317 -220 -583 -225 -591 -6 -12 -10
-10 -17 10 -5 14 -129 329 -275 700 -302 771 -287 730 -287 785 0 56 29 83
109 98 55 11 61 14 61 37 l0 25 -390 0 -390 0 0 -27z"/>
<path d="M23820 4350 c-264 -56 -444 -200 -537 -430 -37 -92 -53 -181 -59
-330 -9 -211 25 -379 107 -517 49 -82 162 -193 242 -238 263 -146 661 -152
929 -14 114 58 238 182 291 290 57 116 78 211 84 380 12 308 -50 501 -213 666
-59 59 -90 80 -175 121 -147 71 -247 92 -435 91 -104 0 -175 -6 -234 -19z
m366 -56 c66 -22 111 -53 170 -116 62 -65 95 -128 128 -240 62 -215 62 -571 0
-787 -30 -103 -64 -168 -121 -232 -161 -178 -434 -187 -601 -20 -134 134 -185
311 -185 646 0 211 15 323 59 446 92 256 320 381 550 303z"/>
<path d="M25780 4348 c-127 -45 -256 -157 -330 -287 -19 -33 -38 -61 -42 -61
-5 0 -8 81 -8 180 0 99 -3 180 -7 180 -5 0 -48 -8 -98 -17 -66 -12 -145 -17
-292 -17 l-203 0 0 -27 c0 -25 3 -26 61 -32 94 -8 148 -41 184 -112 l30 -59 3
-534 c2 -369 -1 -551 -8 -589 -20 -95 -94 -143 -226 -147 -43 -1 -44 -2 -44
-34 0 -33 1 -33 33 -26 41 9 862 8 916 -1 41 -7 41 -6 41 24 0 22 -5 31 -17
32 -237 16 -337 69 -363 193 -8 38 -10 171 -8 423 l3 368 28 80 c71 201 220
357 382 399 76 20 125 20 153 0 l23 -16 -41 -29 c-53 -38 -80 -84 -80 -134 0
-97 71 -155 192 -155 117 0 194 61 206 165 10 91 -41 167 -148 221 -49 25 -68
29 -165 31 -94 3 -119 0 -175 -19z"/>
<path d="M19665 2235 c-38 -37 -35 -95 6 -129 64 -54 148 -17 149 67 0 53 -35
87 -90 87 -30 0 -47 -6 -65 -25z"/>
<path d="M24795 2235 c-38 -37 -35 -95 6 -129 64 -54 148 -17 149 67 0 53 -35
87 -90 87 -30 0 -47 -6 -65 -25z"/>
<path d="M18210 1680 l0 -550 70 0 70 0 0 550 0 550 -70 0 -70 0 0 -550z"/>
<path d="M19260 2018 l0 -213 -30 37 c-43 52 -152 105 -235 113 -126 14 -266
-35 -341 -118 -20 -22 -50 -69 -67 -105 -25 -54 -31 -80 -35 -162 -5 -116 17
-208 71 -286 131 -191 430 -222 591 -60 l46 45 0 -69 0 -70 70 0 70 0 0 550 0
550 -70 0 -70 0 0 -212z m-158 -203 c99 -51 158 -152 158 -275 0 -214 -173
-348 -375 -291 -71 21 -157 108 -179 181 -20 68 -20 152 0 219 18 61 84 139
141 166 74 35 184 35 255 0z"/>
<path d="M23420 1680 l0 -550 70 0 70 0 0 550 0 550 -70 0 -70 0 0 -550z"/>
<path d="M11850 1650 l0 -520 70 0 70 0 0 220 0 220 160 0 c135 0 170 3 217
20 71 25 119 63 158 125 26 42 30 59 33 135 5 106 -18 170 -80 226 -85 76
-168 94 -440 94 l-188 0 0 -520z m447 395 c54 -16 109 -66 117 -108 14 -68 14
-90 1 -135 -29 -98 -85 -123 -282 -130 l-143 -5 0 197 0 196 128 0 c85 0 145
-5 179 -15z"/>
<path d="M22878 2048 l-3 -103 -50 0 -50 0 -3 -52 -3 -53 55 0 56 0 0 -267 c0
-165 4 -283 11 -308 26 -94 108 -135 269 -135 l80 0 0 55 0 55 -60 1 c-33 1
-64 3 -70 4 -5 1 -17 3 -25 4 -9 0 -27 12 -40 26 l-25 24 0 271 0 270 110 0
110 0 0 49 c0 48 0 48 -37 54 -21 3 -71 3 -110 1 l-73 -3 0 104 0 105 -70 0
-69 0 -3 -102z"/>
<path d="M26038 2048 l-3 -103 -52 3 -53 3 0 -55 0 -56 54 0 55 0 3 -287 c3
-249 5 -292 20 -319 41 -76 112 -104 258 -104 l80 0 0 55 0 55 -65 0 c-74 0
-128 18 -144 48 -7 14 -11 115 -11 286 l0 266 110 0 110 0 0 50 0 50 -110 0
-110 0 0 105 0 105 -70 0 -69 0 -3 -102z"/>
<path d="M13020 1949 c-69 -13 -164 -65 -205 -110 -64 -71 -97 -157 -103 -264
-10 -201 66 -342 226 -418 64 -30 73 -32 188 -32 119 0 121 0 196 38 83 41
133 89 167 163 12 24 21 46 21 49 0 3 -34 5 -75 5 -45 0 -75 -4 -75 -10 0 -6
-21 -33 -46 -60 -146 -156 -426 -71 -460 139 l-7 41 337 0 336 0 6 26 c10 39
-4 148 -27 209 -63 169 -269 265 -479 224z m217 -124 c73 -31 132 -107 147
-187 l7 -38 -271 0 c-148 0 -270 4 -270 8 0 5 7 31 15 58 25 85 97 151 190
175 42 11 137 2 182 -16z"/>
<path d="M14033 1946 c-61 -19 -110 -53 -138 -94 l-25 -37 0 66 0 65 -67 -2
-68 -1 -3 -407 -2 -406 70 0 70 0 0 253 c0 138 5 268 10 288 25 91 92 141 197
147 l63 4 0 69 0 69 -32 -1 c-18 0 -52 -6 -75 -13z"/>
<path d="M14494 1947 c-150 -39 -229 -149 -195 -274 24 -88 91 -133 271 -183
63 -18 132 -41 152 -51 74 -38 88 -95 37 -153 -46 -53 -133 -70 -224 -45 -46
13 -115 77 -115 108 0 19 -5 21 -71 21 l-72 0 6 -40 c16 -123 157 -210 336
-210 174 1 290 82 299 211 6 75 -1 101 -40 144 -41 48 -81 67 -228 110 -142
42 -170 55 -199 91 -79 100 59 204 211 160 59 -17 92 -45 109 -94 11 -32 11
-32 79 -32 l67 0 -7 38 c-15 80 -64 141 -147 179 -64 30 -193 39 -269 20z"/>
<path d="M15412 1950 c-196 -42 -322 -202 -322 -409 0 -202 103 -348 282 -402
58 -18 87 -21 162 -16 188 10 314 97 379 261 30 75 29 239 -2 319 -43 110
-132 194 -246 232 -59 20 -193 28 -253 15z m237 -140 c50 -25 96 -76 123 -135
32 -71 32 -199 0 -270 -62 -136 -207 -199 -357 -156 -69 20 -144 96 -168 170
-48 149 4 320 116 385 79 47 203 49 286 6z"/>
<path d="M16467 1950 c-55 -14 -108 -44 -142 -80 l-30 -32 -5 52 -5 52 -68 2
-67 1 0 -407 0 -408 69 0 70 0 3 278 3 277 28 48 c92 155 340 150 418 -10 23
-46 24 -57 27 -320 l3 -273 65 0 65 0 -3 303 c-3 283 -4 305 -24 348 -49 106
-152 169 -287 175 -45 2 -99 -1 -120 -6z"/>
<path d="M17402 1949 c-61 -12 -157 -66 -198 -112 -20 -22 -50 -69 -67 -105
-25 -54 -31 -81 -35 -162 -5 -102 9 -174 50 -254 29 -58 105 -128 173 -161 55
-27 69 -30 170 -30 99 0 116 3 167 27 31 14 77 47 102 72 l46 45 0 -69 0 -70
70 0 70 0 0 410 0 411 -67 -3 -68 -3 -5 -70 -5 -69 -18 27 c-10 15 -41 43 -70
62 -86 57 -201 77 -315 54z m250 -134 c99 -51 158 -152 158 -275 0 -214 -173
-348 -375 -291 -71 21 -157 108 -179 181 -20 68 -20 152 0 219 18 61 84 139
141 166 74 35 184 35 255 0z"/>
<path d="M20310 1949 c-69 -13 -164 -65 -205 -110 -64 -71 -97 -157 -103 -264
-10 -201 66 -342 226 -418 64 -30 73 -32 188 -32 119 0 121 0 196 38 83 41
133 89 167 163 12 24 21 46 21 49 0 3 -34 5 -75 5 -45 0 -75 -4 -75 -10 0 -6
-21 -33 -46 -60 -146 -156 -426 -71 -460 139 l-7 41 343 0 343 0 -5 88 c-7
111 -35 186 -95 252 -94 104 -253 150 -413 119z m217 -124 c73 -31 132 -107
147 -187 l7 -38 -271 0 c-148 0 -270 4 -270 8 0 5 7 31 15 58 25 85 97 151
190 175 42 11 137 2 182 -16z"/>
<path d="M21347 1950 c-55 -14 -108 -44 -142 -80 l-30 -32 -5 53 -5 53 -44 4
c-23 2 -54 1 -67 -2 l-24 -6 0 -405 0 -405 69 0 70 0 3 278 3 277 28 48 c92
155 340 150 418 -10 23 -46 24 -57 27 -320 l3 -273 65 0 65 0 -3 303 c-3 283
-4 305 -24 348 -49 106 -152 169 -287 175 -45 2 -99 -1 -120 -6z"/>
<path d="M22204 1947 c-73 -19 -140 -62 -172 -109 -35 -54 -39 -153 -7 -208
28 -48 103 -96 189 -121 208 -60 236 -71 261 -101 34 -40 32 -79 -6 -122 -46
-53 -133 -70 -224 -45 -46 13 -115 77 -115 108 0 20 -5 21 -75 21 l-75 0 6
-27 c30 -138 161 -223 343 -223 174 1 290 82 299 211 6 75 -1 101 -40 144 -41
48 -81 67 -228 110 -142 42 -170 55 -199 91 -79 100 59 204 211 160 59 -17 92
-45 109 -94 11 -32 11 -32 79 -32 l67 0 -7 38 c-15 80 -64 141 -147 179 -64
30 -193 39 -269 20z"/>
<path d="M24080 1949 c-69 -13 -164 -65 -205 -110 -64 -71 -97 -157 -103 -264
-10 -201 66 -342 226 -418 64 -30 73 -32 188 -32 119 0 121 0 196 38 83 41
133 89 167 163 12 24 21 46 21 49 0 3 -34 5 -75 5 -45 0 -75 -4 -75 -10 0 -6
-21 -33 -46 -60 -146 -156 -426 -71 -460 139 l-7 41 337 0 336 0 6 26 c10 39
-4 148 -27 209 -63 169 -269 265 -479 224z m217 -124 c73 -31 132 -107 147
-187 l7 -38 -271 0 c-148 0 -270 4 -270 8 0 5 7 31 15 58 25 85 97 151 190
175 42 11 137 2 182 -16z"/>
<path d="M25364 1947 c-73 -19 -140 -62 -172 -109 -35 -54 -39 -153 -7 -208
28 -48 103 -96 189 -121 208 -60 236 -71 261 -101 34 -40 32 -79 -6 -122 -46
-53 -133 -70 -224 -45 -46 13 -115 77 -115 108 0 19 -5 21 -74 21 l-74 0 10
-42 c28 -127 158 -208 332 -208 158 0 267 63 301 175 23 75 5 143 -52 196 -41
38 -75 53 -213 94 -142 42 -170 55 -199 91 -79 100 59 204 211 160 59 -17 92
-45 109 -94 11 -32 11 -32 79 -32 l67 0 -7 38 c-15 80 -64 141 -147 179 -64
30 -193 39 -269 20z"/>
<path d="M26840 1949 c-69 -13 -164 -65 -205 -110 -64 -71 -97 -157 -103 -264
-10 -201 66 -342 226 -418 64 -30 73 -32 188 -32 119 0 121 0 196 38 83 41
133 89 167 163 12 24 21 46 21 49 0 3 -34 5 -75 5 -45 0 -75 -4 -75 -10 0 -6
-21 -33 -46 -60 -146 -156 -426 -71 -460 139 l-7 41 337 0 336 0 6 26 c10 39
-4 148 -27 209 -63 169 -269 265 -479 224z m217 -124 c73 -31 132 -107 147
-187 l7 -38 -271 0 c-148 0 -270 4 -270 8 0 5 7 31 15 58 25 85 97 151 190
175 42 11 137 2 182 -16z"/>
<path d="M27853 1946 c-61 -19 -110 -53 -138 -94 l-25 -37 0 62 c0 34 -5 65
-11 68 -5 4 -37 4 -70 0 l-59 -7 0 -404 0 -404 70 0 70 0 0 253 c0 138 5 268
10 288 25 91 92 141 197 147 l63 4 0 69 0 69 -32 -1 c-18 0 -52 -6 -75 -13z"/>
<path d="M19660 1538 l0 -408 70 0 70 0 0 409 0 409 -70 -2 -70 -1 0 -407z"/>
<path d="M24790 1538 l0 -408 70 0 70 0 -2 406 -3 406 -68 2 -67 1 0 -407z"/>
</g>
</svg>
