<?xml version="1.0" encoding="UTF-8" standalone="no"?>
<!-- Generator: Adobe Illustrator 15.1.0, SVG Export Plug-In . SVG Version: 6.00 Build 0)  -->

<svg
   version="1.0"
   id="Layer_1"
   x="0px"
   y="0px"
   width="180"
   height="91.473999"
   viewBox="-10 -10 225 114.3425"
   enable-background="new 0 0 200 89.343"
   xml:space="preserve"
   xmlns="http://www.w3.org/2000/svg"
   xmlns:svg="http://www.w3.org/2000/svg"><defs
   id="defs45" />



















<g
   id="g171"><path
     id="path40"
     d="m 202.221,2.5000001 h -88.784 -0.279 v 0.279 V 91.564 91.843 h 0.279 88.784 0.279 v -0.279 -88.7849999 -0.279 M 201.943,57.991 h -10.54 v -10.54 h 10.54 z m -66.589,28.302 v 3.617 c -0.994,-1.938 -3.005,-3.227 -5.271,-3.227 -2.268,0 -4.277,1.289 -5.271,3.227 v -3.617 z m 0.557,0 h 10.542 v 3.617 c -0.995,-1.938 -3.005,-3.227 -5.271,-3.227 -2.268,0 -4.277,1.289 -5.271,3.227 z m 11.099,-71.896 9.898,6.6 h -9.898 z m 43.835,17.697 h -10.54 v -6.598 l 5.116,3.41 0.154,0.104 0.154,-0.104 5.115,-3.41 v 6.598 z m 0,14.798 h -10.54 v -3.469 h -0.559 v 2.211 l -3.48,-9.282 h 14.579 z m -39.017,22.754 -4.818,9.638 v -9.638 z m -5.375,9.638 -4.819,-9.638 h 4.819 z m -0.175,0.902 h -10.193 l 5.098,-10.196 z m 6.001,-10.196 5.098,10.196 h -10.195 z m 0.451,-0.344 h 4.818 v 9.638 z m 5.377,0 h 3.142 v 10.54 h -3.142 z M 140.903,13.599 h -4.992 v -3.143 h 4.992 z m -5.549,-0.243 -4.351,-2.901 h 4.351 z m 0,0.67 v 3.271 H 124.812 V 6.9990001 Z m 0.557,0.371 4.35,2.9 h -4.35 z m -0.557,3.457 v 3.143 h -10.542 v -3.143 z m 0,3.7 v 3.141 h -10.542 v -3.141 z m 16.925,6.786 -4.627,-3.086 h 9.256 z m -5.826,0.055 h -4.991 v -3.141 h 4.991 z m -5.55,0 h -4.992 v -3.141 h 4.992 z m -10.819,-0.055 -4.629,-3.086 h 9.257 z m -0.156,0.566 0.156,0.104 0.154,-0.104 5.116,-3.41 v 6.598 h -10.542 v -6.598 z m 5.983,0.047 h 10.542 v 3.141 h -10.542 z m 11.099,-3.457 5.115,3.41 0.154,0.104 0.154,-0.104 5.115,-3.41 v 6.598 H 147.01 Z m 32.736,6.598 h -4.99 v -3.141 h 4.99 z m -3.689,3.699 -1.178,-3.141 h 4.867 v 3.141 z m 7.388,27.747 h -3.141 v -4.992 h 3.141 z m 0.56,-4.993 h 3.141 v 4.992 h -3.141 z m -9.808,8.97 v 1.57 h -1.291 v -4.991 h 3.141 v 4.991 h -1.291 v -1.57 z m -11.098,0 v 1.57 h -1.291 v -4.991 h 3.141 v 4.991 h -1.291 v -1.57 z m -4.992,-8.97 h 3.142 v 4.992 h -3.142 z m 3.701,0 h 3.141 v 4.992 h -3.141 z m -3.701,-25.894 h 10.54 v 3.141 h -10.54 z m 11.099,0 h 4.868 l -1.178,3.141 h -3.69 z m 3.7,25.338 v -10.54 h 3.141 v 10.54 z m 3.141,0.556 v 4.992 h -3.141 v -4.992 z m -3.106,-11.655 1.535,-12.271 1.533,12.271 z m 0.965,-12.202 -1.525,12.202 h -3.052 z m -1.558,12.761 v 10.54 h -3.142 v -10.54 z m 0,11.096 v 4.992 h -3.142 v -4.992 z m -3.701,4.993 h -3.141 v -4.992 h 3.141 z m -3.14,0.556 h 3.141 v 4.991 h -3.141 z m 3.699,0 h 3.142 v 4.991 h -3.142 z m 7.399,0 h 3.141 v 4.991 h -3.141 z m 3.7,0 h 3.141 v 4.991 h -3.141 z m -0.559,-0.556 h -3.141 v -4.992 h 3.141 z m -3.141,-5.549 v -10.54 h 3.141 v 10.54 z m -0.033,-11.099 -1.525,-12.202 4.576,12.202 z m -2.375,-14.798 h -4.991 v -3.141 h 4.991 z m -5.55,0 h -10.54 v -3.141 h 10.54 z m -11.098,0.559 v 3.141 H 147.01 v -3.141 z m 0,3.699 v 3.141 H 147.01 v -3.141 z m 0,6.84 H 147.01 v -3.141 h 10.539 z m -10.539,0.559 h 10.539 v 3.141 H 147.01 Z m 11.097,-7.399 h 14.58 l -3.481,9.282 v -2.211 h -0.559 v 3.469 h -10.54 z m 10.54,11.099 v 10.54 h -3.141 v -3.469 h -0.559 v 3.469 h -3.141 v -3.469 h -0.559 v 3.469 h -3.142 v -10.54 z m -10.54,16.645 h 3.142 v 4.991 h -3.142 z m 3.701,5.55 h 1.291 v 8.97 h 0.559 v -8.97 h 1.291 v 10.54 h -3.141 z m 3.699,0 h 3.141 v 10.54 h -3.141 z m 3.699,0 h 3.142 v 10.54 h -3.142 z m 3.7,0 h 1.291 v 8.97 h 0.559 v -8.97 h 1.291 v 10.54 h -3.141 z m 3.699,0 h 3.141 v 10.54 h -3.141 z m 3.7,0 h 3.141 v 10.54 h -3.141 z m 3.7,0 h 1.291 v 8.97 h 0.559 v -8.97 h 1.291 v 10.54 h -3.141 z m 1.849,-0.559 v -1.57 h -0.559 v 1.57 h -1.291 v -4.991 h 3.141 v 4.991 z m 1.85,-4.991 h 3.141 v 4.991 h -3.141 z m 3.699,-5.549 h 4.816 l -4.816,9.638 z m -0.558,4.993 h -3.141 v -4.992 h 3.141 z m -3.141,-5.549 v -3.469 h -0.559 v 3.469 h -3.141 v -3.469 h -0.56 v 3.469 h -3.141 v -10.54 h 10.54 v 10.54 z m -7.399,-22.198 v -3.141 h 10.54 v 3.141 z m 5.27,-7.453 -4.63,-3.086 h 9.259 z m -5.829,0.055 h -10.54 v -3.141 h 10.54 z m -11.099,0 h -10.54 v -3.141 h 10.54 z m -11.098,-6.841 v 3.141 H 147.01 v -3.141 z m -11.096,3.141 h -4.991 v -3.141 h 4.991 z m -5.55,0 h -4.992 v -3.141 h 4.992 z m -4.992,-3.697 v -3.143 h 4.992 v 3.143 z m 0.643,-6.843 h 4.35 v 2.9 z m 4.349,-4.2559999 h -4.992 v -3.143 h 4.992 z m -5.549,0 h -5.187 l -4.713,-3.143 h 9.899 v 3.143 z M 124.256,13.599 h -4.991 v -3.143 h 4.991 z m 0,0.556 v 3.143 h -4.991 v -3.143 z m 0,3.699 v 3.143 h -4.991 v -3.143 z m 0,3.7 v 3.141 h -4.991 v -3.141 z m 0,3.699 v 3.141 h -4.991 v -3.141 z m 0.557,7.4 h 10.542 v 3.141 h -10.542 z m 11.098,0 h 10.542 v 3.141 h -10.542 z m 10.542,3.699 v 10.54 h -10.542 v -10.54 z m 11.096,11.099 V 69.088 H 135.911 V 47.451 Z m -16.818,22.195 -4.82,9.638 v -9.638 z m -4.82,11.099 h 10.542 v 4.99 h -10.542 z m 11.099,5.548 h 10.539 v 3.615 c -0.992,-1.936 -3.002,-3.225 -5.27,-3.225 -2.266,0 -4.275,1.289 -5.27,3.227 v -3.617 z m 0,-0.558 v -4.99 h 10.539 v 4.99 z m 11.097,-4.99 h 3.142 v 4.99 h -3.142 z m 3.701,0 h 3.141 v 4.99 h -3.141 z m 3.699,0 h 3.141 v 4.99 h -3.141 z m 3.699,0 h 3.142 v 4.99 h -3.142 z m 3.7,0 h 3.141 v 4.99 h -3.141 z m 3.699,0 h 3.141 v 4.99 h -3.141 z m 3.7,0 h 3.141 v 4.99 h -3.141 z m 3.7,0 h 3.141 v 4.99 h -3.141 z m 3.699,0 h 3.141 v 4.99 h -3.141 z m 0,-0.559 v -10.54 h 3.141 v 10.54 z m 8.97,-21.293 5.096,10.194 h -10.194 z m 5.269,-12.001 h -10.54 v -6.84 h 10.54 z m 0,-7.399 h -10.54 v -3.141 h 10.54 z m 0,-3.7 h -10.54 v -3.141 h 10.54 z m 0,-3.699 h -10.54 v -3.141 h 10.54 z m 0,-3.699 h -10.54 v -3.141 h 10.54 z m 0,-3.7 H 180.304 V 3.0570001 h 21.639 z m -22.197,0 H 158.107 V 3.0570001 h 21.639 z m -22.197,-3.94 -10.662,-7.11 -0.434,-0.289 v 0.52 7.122 h -4.991 v -14.5209999 -0.278 h -0.279 -5.271 v -3.142 H 157.55 V 20.755 Z M 135.354,6.1990001 h -10.819 -0.279 v 0.277 3.422 h -4.991 v -6.841 h 16.09 v 3.142 z m -16.648,0 h -4.99 v -3.142 h 4.99 z m 0,0.557 v 3.143 h -4.99 v -3.143 z m 0,3.6999999 v 3.143 h -4.99 v -3.143 z m 0,3.699 v 3.143 h -4.99 v -3.143 z m 0,3.699 v 3.143 h -4.99 v -3.143 z m 0,3.7 v 3.141 h -4.99 v -3.141 z m 0,3.699 v 3.141 h -4.99 v -3.141 z m 5.55,3.7 v 6.84 h -10.54 v -6.84 z m 11.098,7.399 v 10.54 h -21.639 v -10.54 z m 0,11.099 V 69.088 H 113.715 V 47.451 Z m 0,22.195 V 85.735 H 113.715 V 69.646 Z m -11.098,16.647 v 3.617 c -0.994,-1.938 -3.005,-3.227 -5.271,-3.227 -2.268,0 -4.277,1.289 -5.27,3.225 v -3.615 z m -5.271,0.95 c 2.464,0 4.597,1.682 5.198,4.042 h -10.396 c 0.603,-2.361 2.734,-4.042 5.198,-4.042 z m 11.099,0 c 2.463,0 4.595,1.682 5.198,4.042 h -10.396 c 0.602,-2.361 2.733,-4.042 5.198,-4.042 z m 11.099,0 c 2.463,0 4.594,1.682 5.196,4.042 h -10.394 c 0.602,-2.361 2.733,-4.042 5.198,-4.042 z m 11.096,0 c 2.465,0 4.596,1.682 5.197,4.042 h -10.393 c 0.603,-2.361 2.733,-4.042 5.196,-4.042 z m 5.828,-0.95 h 10.54 v 4.991 h -10.54 z m 11.099,0 h 10.54 v 4.991 h -10.54 z m 11.099,0 h 10.54 v 4.991 h -10.54 z m 11.098,0 h 10.54 v 4.991 h -10.54 z m 0,-0.558 v -4.99 h 10.54 v 4.99 z m 0,-5.549 v -10.54 h 10.54 v 10.54 z m 5.722,-21.639 h 4.818 v 9.638 z m -111.371,1.75 h 4.739 c 0.174,0 0.27,0.02 0.27,0.078 0,0.057 -0.039,0.115 -0.076,0.211 l -0.346,0.787 c -0.059,0.152 -0.135,0.172 -0.25,0.172 h -5.989 c -0.191,0 -0.211,-0.02 -0.211,-0.23 V 60.547 L 88.71,53.58 h -4.204 c -0.154,0 -0.23,-0.076 -0.23,-0.229 v -0.787 c 0,-0.193 0.039,-0.23 0.23,-0.23 h 5.795 c 0.191,0 0.23,0.037 0.23,0.23 v 0.787 m -9.384,7.964 c 0,0.154 -0.076,0.23 -0.23,0.23 h -0.999 c -0.152,0 -0.229,-0.076 -0.229,-0.23 v -6.41 c 0,-0.824 -0.213,-1.554 -1.248,-1.554 -1.248,0 -2.055,0.749 -2.533,1.171 v 6.793 c 0,0.154 -0.076,0.23 -0.23,0.23 H 74.68 c -0.152,0 -0.23,-0.076 -0.23,-0.23 v -6.621 c 0,-0.633 0,-0.844 -0.076,-1.131 -0.155,-0.577 -0.307,-0.712 -0.307,-0.808 0,-0.039 0.02,-0.076 0.096,-0.135 l 0.864,-0.48 c 0.037,-0.018 0.096,-0.076 0.154,-0.076 0.344,0 0.574,1.152 0.594,1.305 0.633,-0.498 1.631,-1.305 3.09,-1.305 2.131,0 2.284,1.499 2.284,2.88 m -10.403,3.57 c 0,1.209 0.059,1.381 0.23,1.918 0.076,0.23 0.346,0.596 0.346,0.711 0,0.076 -0.096,0.115 -0.174,0.152 L 70.4,61.756 c -0.076,0.039 -0.115,0.059 -0.154,0.059 -0.287,0 -0.633,-1.018 -0.729,-1.287 -0.23,0.211 -1.17,1.287 -2.764,1.287 -1.516,0 -2.494,-0.998 -2.494,-2.707 0,-3.242 3.838,-3.301 5.028,-3.34 v -0.689 c 0,-1.113 -0.346,-1.728 -1.708,-1.728 -1.287,0 -2.17,0.614 -2.342,0.614 -0.057,0 -0.115,-0.039 -0.135,-0.096 l -0.248,-0.673 c -0.039,-0.096 -0.059,-0.154 -0.059,-0.25 0,-0.326 1.766,-0.883 2.994,-0.883 2.208,0 2.956,1.074 2.956,2.688 m -1.458,2.208 c -0.844,0.02 -3.588,0.02 -3.588,2.033 0,0.768 0.422,1.631 1.4,1.631 0.999,0 1.881,-0.92 2.188,-1.189 z M 62.8,60.834 c 0.02,0.078 0.039,0.135 0.039,0.193 0,0.25 -1.44,0.787 -2.475,0.787 -0.826,0 -1.518,-0.309 -1.805,-0.672 -0.557,-0.596 -0.557,-1.459 -0.557,-2.168 v -5.451 h -1.439 c -0.135,0 -0.135,-0.136 -0.135,-0.231 v -0.729 c 0,-0.135 0,-0.23 0.135,-0.23 h 1.439 v -2.629 c 0,-0.115 0.076,-0.193 0.211,-0.23 l 1.018,-0.289 c 0.057,0 0.096,-0.018 0.135,-0.018 0.096,0 0.096,0.096 0.096,0.211 v 2.955 h 2.84 c 0.115,0 0.211,0.02 0.211,0.135 0,0.037 -0.02,0.076 -0.02,0.133 l -0.248,0.75 c -0.039,0.097 -0.137,0.173 -0.25,0.173 h -2.534 v 5.451 c 0,0.768 0,1.553 1.15,1.553 0.902,0 1.67,-0.518 1.844,-0.518 0.076,0 0.133,0.057 0.133,0.115 M 54.107,53.6 c -0.078,0.154 -0.115,0.23 -0.23,0.23 -0.135,0 -0.941,-0.519 -1.939,-0.519 -0.768,0 -1.42,0.384 -1.42,1.267 0,2.111 4.26,1.518 4.26,4.51 0,1.805 -1.42,2.727 -3.07,2.727 -0.92,0 -2.917,-0.537 -2.917,-0.922 0,-0.096 0.039,-0.154 0.076,-0.23 l 0.27,-0.596 c 0.057,-0.133 0.115,-0.172 0.172,-0.172 0.174,0 1.17,0.672 2.477,0.672 0.824,0 1.535,-0.461 1.535,-1.383 0,-1.996 -4.262,-1.553 -4.262,-4.451 0,-1.556 1.209,-2.669 2.899,-2.669 0.652,0 1.766,0.307 2.264,0.576 0.154,0.076 0.211,0.154 0.211,0.25 0,0.057 -0.057,0.115 -0.076,0.191 m -8.004,8.234 c 0,0.154 -0.078,0.23 -0.23,0.23 h -0.998 c -0.154,0 -0.23,-0.076 -0.23,-0.23 v -6.41 c 0,-0.824 -0.211,-1.554 -1.248,-1.554 -1.247,0 -2.053,0.749 -2.532,1.171 v 6.793 c 0,0.154 -0.078,0.23 -0.23,0.23 h -0.998 c -0.154,0 -0.23,-0.076 -0.23,-0.23 v -6.621 c 0,-0.633 0,-0.844 -0.076,-1.131 -0.154,-0.577 -0.309,-0.712 -0.309,-0.808 0,-0.039 0.02,-0.076 0.096,-0.135 l 0.865,-0.48 c 0.037,-0.018 0.096,-0.076 0.152,-0.076 0.346,0 0.576,1.152 0.596,1.305 0.633,-0.498 1.631,-1.305 3.09,-1.305 2.129,0 2.283,1.499 2.283,2.88 m -13.801,6.871 c -2.59,0 -3.704,-2.092 -3.704,-4.836 0,-2.648 1.113,-4.915 3.897,-4.915 2.629,0 3.742,2.112 3.742,4.819 10e-4,2.686 -1.132,4.932 -3.935,4.932 m 2.362,-4.951 c 0,-1.881 -0.518,-3.61 -2.246,-3.61 -1.727,0 -2.245,1.651 -2.245,3.552 0,2.188 0.499,3.818 2.264,3.818 1.709,0 2.227,-1.555 2.227,-3.76 z m -8.407,4.816 c -0.115,0.076 -0.191,0.135 -0.268,0.135 -0.078,0 -0.174,-0.078 -0.25,-0.174 l -4.817,-6.352 h -0.039 v 6.025 c 0,0.154 -0.076,0.23 -0.23,0.23 h -1.113 c -0.152,0 -0.229,-0.076 -0.229,-0.23 V 48.628 c 0,-0.152 0.076,-0.229 0.229,-0.229 h 1.113 c 0.154,0 0.23,0.076 0.23,0.229 v 6.296 h 0.039 l 4.893,-6.64 c 0.039,-0.039 0.115,-0.154 0.23,-0.154 0.078,0 0.115,0.059 0.23,0.135 l 0.615,0.422 c 0.096,0.076 0.172,0.115 0.172,0.191 0,0.059 -0.076,0.154 -0.115,0.211 l -4.471,5.931 4.586,5.758 c 0.039,0.057 0.096,0.115 0.096,0.154 0,0.076 -0.039,0.152 -0.135,0.211 M 91.013,40.444 c 0.018,0.076 0.037,0.135 0.037,0.191 0,0.25 -1.439,0.787 -2.475,0.787 -0.826,0 -1.516,-0.307 -1.805,-0.672 -0.557,-0.594 -0.557,-1.459 -0.557,-2.168 V 33.13 h -1.439 c -0.133,0 -0.133,-0.133 -0.133,-0.23 v -0.729 c 0,-0.135 0,-0.23 0.133,-0.23 h 1.439 v -2.629 c 0,-0.115 0.076,-0.191 0.211,-0.23 l 1.018,-0.287 c 0.059,0 0.096,-0.02 0.135,-0.02 0.096,0 0.096,0.096 0.096,0.211 v 2.956 h 2.84 c 0.115,0 0.211,0.02 0.211,0.135 0,0.039 -0.02,0.076 -0.02,0.135 l -0.248,0.748 c -0.039,0.096 -0.135,0.172 -0.25,0.172 h -2.533 v 5.452 c 0,0.768 0,1.555 1.15,1.555 0.902,0 1.67,-0.52 1.844,-0.52 0.076,0 0.135,0.059 0.135,0.115 M 82.28,38.122 c 0,1.209 0.059,1.381 0.23,1.92 0.076,0.229 0.346,0.594 0.346,0.709 0,0.076 -0.096,0.115 -0.172,0.154 l -0.75,0.461 c -0.076,0.037 -0.115,0.057 -0.152,0.057 -0.289,0 -0.635,-1.018 -0.73,-1.285 -0.23,0.211 -1.17,1.285 -2.764,1.285 -1.516,0 -2.494,-0.998 -2.494,-2.705 0,-3.245 3.838,-3.301 5.028,-3.34 v -0.691 c 0,-1.113 -0.346,-1.727 -1.708,-1.727 -1.287,0 -2.168,0.613 -2.342,0.613 -0.057,0 -0.115,-0.037 -0.135,-0.096 l -0.25,-0.672 C 76.35,32.709 76.33,32.653 76.33,32.557 c 0,-0.328 1.766,-0.883 2.994,-0.883 2.208,0 2.956,1.074 2.956,2.686 M 77.385,30.1 c -0.557,0 -1.016,-0.461 -1.016,-1.018 0,-0.557 0.459,-1.018 1.016,-1.018 0.576,0 1.018,0.461 1.018,1.018 0,0.557 -0.442,1.018 -1.018,1.018 z m 3.436,6.467 c -0.844,0.02 -3.588,0.02 -3.588,2.036 0,0.768 0.422,1.631 1.4,1.631 0.998,0 1.881,-0.922 2.188,-1.189 z m 0.346,-8.503 c 0.557,0 1.018,0.461 1.018,1.018 0,0.557 -0.462,1.018 -1.018,1.018 -0.556,0 -1.018,-0.461 -1.018,-1.018 0,-0.557 0.461,-1.018 1.018,-1.018 z m -6.833,12.38 c 0.02,0.076 0.039,0.135 0.039,0.191 0,0.25 -1.44,0.787 -2.475,0.787 -0.826,0 -1.518,-0.307 -1.805,-0.672 -0.557,-0.594 -0.557,-1.459 -0.557,-2.168 V 33.13 h -1.439 c -0.135,0 -0.135,-0.133 -0.135,-0.23 v -0.729 c 0,-0.135 0,-0.23 0.135,-0.23 h 1.439 v -2.629 c 0,-0.115 0.076,-0.191 0.211,-0.23 l 1.018,-0.287 c 0.057,0 0.096,-0.02 0.135,-0.02 0.096,0 0.096,0.096 0.096,0.211 v 2.956 h 2.84 c 0.115,0 0.211,0.02 0.211,0.135 0,0.039 -0.02,0.076 -0.02,0.135 l -0.248,0.748 c -0.039,0.096 -0.135,0.172 -0.25,0.172 h -2.533 v 5.452 c 0,0.768 0,1.555 1.15,1.555 0.902,0 1.67,-0.52 1.842,-0.52 0.078,0 0.135,0.059 0.135,0.115 m -8.694,1.191 c 0,0.152 -0.076,0.229 -0.23,0.229 h -0.996 c -0.154,0 -0.23,-0.076 -0.23,-0.229 v -7.793 h -1.498 c -0.152,0 -0.23,-0.076 -0.23,-0.23 v -0.729 c 0,-0.154 0.078,-0.23 0.23,-0.23 h 2.707 c 0.211,0 0.248,0.115 0.248,0.287 m -0.826,-2.496 c -0.652,0 -1.172,-0.518 -1.172,-1.17 0,-0.652 0.52,-1.17 1.172,-1.17 0.652,0 1.17,0.537 1.17,1.17 0,0.633 -0.517,1.17 -1.17,1.17 z m -4.816,3.475 c -0.078,0.152 -0.115,0.23 -0.23,0.23 -0.135,0 -0.941,-0.52 -1.939,-0.52 -0.768,0 -1.42,0.385 -1.42,1.268 0,2.111 4.262,1.516 4.262,4.51 0,1.803 -1.422,2.725 -3.07,2.725 -0.922,0 -2.918,-0.537 -2.918,-0.922 0,-0.096 0.039,-0.152 0.076,-0.23 l 0.27,-0.594 c 0.057,-0.135 0.115,-0.174 0.172,-0.174 0.174,0 1.172,0.672 2.477,0.672 0.824,0 1.535,-0.459 1.535,-1.381 0,-1.997 -4.26,-1.555 -4.26,-4.454 0,-1.553 1.209,-2.666 2.897,-2.666 0.652,0 1.766,0.307 2.266,0.574 0.152,0.078 0.211,0.154 0.211,0.25 0,0.059 -0.059,0.115 -0.078,0.191 m -9.713,8.237 c 0,0.152 -0.076,0.229 -0.23,0.229 h -0.999 c -0.154,0 -0.23,-0.076 -0.23,-0.229 V 34.34 c 0,-0.346 -0.057,-0.979 -0.326,-1.457 -0.152,-0.27 -0.211,-0.424 -0.211,-0.48 0.02,-0.115 0.096,-0.174 0.135,-0.191 l 0.709,-0.441 c 0.078,-0.059 0.155,-0.096 0.194,-0.096 0.346,0 0.67,1.189 0.748,1.611 0.498,-0.537 1.189,-1.611 2.303,-1.611 0.441,0 0.939,0.152 0.939,0.326 0,0.037 -0.037,0.096 -0.057,0.152 l -0.422,0.979 c -0.02,0.039 -0.039,0.135 -0.115,0.135 -0.096,0 -0.27,-0.172 -0.633,-0.172 -0.672,0 -1.344,0.998 -1.805,1.496 m -4.664,5.68 c 0.02,0.059 0.059,0.098 0.059,0.154 0,0.211 -1.611,0.998 -3.032,0.998 -2.553,-0.02 -4.051,-1.957 -4.051,-4.875 0,-2.82 1.42,-4.873 3.801,-4.873 3.206,0 3.493,3.107 3.493,4.758 0,0.27 0,0.422 -0.211,0.422 h -5.508 c 0,1.172 0.461,3.284 2.648,3.284 1.249,0 2.247,-0.787 2.36,-0.787 0.059,0 0.078,0.057 0.117,0.115 m -0.981,-3.802 c 0,-0.998 -0.326,-2.801 -1.997,-2.801 -1.766,0 -2.148,1.842 -2.148,2.801 z m -10.689,5.451 c -0.059,0.135 -0.078,0.172 -0.25,0.172 H 32.67 c -0.174,0 -0.193,-0.076 -0.23,-0.172 l -3.225,-8.752 c 0,-0.037 -0.039,-0.076 -0.039,-0.135 0,-0.076 0.039,-0.096 0.174,-0.133 l 0.939,-0.25 c 0.059,0 0.115,-0.039 0.193,-0.039 0.077,0 0.077,0.078 0.133,0.154 l 2.131,6.237 c 0.135,0.404 0.25,0.846 0.346,1.209 h 0.039 c 0.096,-0.461 0.172,-0.729 0.344,-1.189 l 2.266,-6.256 c 0.057,-0.076 0.057,-0.154 0.135,-0.154 0.076,0 0.133,0.039 0.191,0.039 l 0.94,0.25 c 0.135,0.037 0.174,0.057 0.174,0.133 0,0.059 -0.039,0.098 -0.039,0.135 m -10.556,8.56 c 0,0.152 -0.076,0.229 -0.23,0.229 h -0.998 c -0.152,0 -0.23,-0.076 -0.23,-0.229 V 33.132 H 23.63 c -0.154,0 -0.23,-0.076 -0.23,-0.23 v -0.729 c 0,-0.154 0.076,-0.23 0.23,-0.23 h 2.706 c 0.211,0 0.25,0.115 0.25,0.287 m -0.824,-2.496 c -0.654,0 -1.172,-0.518 -1.172,-1.17 0,-0.652 0.518,-1.17 1.172,-1.17 0.652,0 1.17,0.537 1.17,1.17 0,0.633 -0.518,1.17 -1.17,1.17 z m -4.934,11.191 c 0,0.152 -0.076,0.229 -0.23,0.229 H 19.6 c -0.152,0 -0.229,-0.076 -0.229,-0.229 v -6.411 c 0,-0.826 -0.211,-1.555 -1.248,-1.555 -1.249,0 -2.053,0.748 -2.534,1.17 v 6.795 c 0,0.152 -0.076,0.229 -0.23,0.229 H 14.36 c -0.152,0 -0.23,-0.076 -0.23,-0.229 v -6.622 c 0,-0.633 0,-0.846 -0.076,-1.133 -0.154,-0.576 -0.307,-0.711 -0.307,-0.807 0,-0.037 0.02,-0.076 0.096,-0.135 l 0.863,-0.479 c 0.039,-0.02 0.096,-0.076 0.154,-0.076 0.346,0 0.574,1.15 0.594,1.305 0.635,-0.5 1.631,-1.305 3.09,-1.305 2.131,0 2.283,1.496 2.283,2.879 m -10.133,3.073 c 0,2.303 -1.2849999,3.799 -4.2209999,3.799 -2.899,0 -3.973,-1.479 -3.973,-3.799 v -9.385 c 0,-0.154 0.076,-0.23 0.23,-0.23 h 1.113 c 0.152,0 0.23,0.076 0.23,0.23 v 9.346 c 0,1.575 0.613,2.553 2.418,2.553 1.766,0 2.629,-0.807 2.629,-2.553 v -9.346 c 0,-0.154 0.076,-0.23 0.23,-0.23 H 10.463 c 0.152,0 0.229,0.076 0.229,0.23" /></g>
</svg>
